<svg width="75" height="75" viewBox="0 0 75 75" fill="none" xmlns="http://www.w3.org/2000/svg">
<path d="M31.2391 34.4404C30.6563 34.8567 29.9069 35.1065 28.9911 35.1065H23.8289V29.6945H28.658C29.1576 29.6945 29.5739 29.6945 29.9902 29.7778C30.4065 29.861 30.7395 30.0275 31.0726 30.1941C31.4056 30.4438 31.6554 30.6936 31.8219 31.0267C31.9885 31.3597 32.0717 31.8593 32.0717 32.3588C32.0717 33.2747 31.8219 34.0241 31.2391 34.4404Z" fill="#001AFF"/>
<path d="M30.6563 44.7647C30.24 44.848 29.7404 44.9312 29.2409 44.9312H23.8289V38.5201H29.3241C30.4065 38.5201 31.3224 38.7699 31.9885 39.2695C32.6545 39.8523 32.9876 40.6849 32.9876 41.8506C32.9876 42.4334 32.8211 42.933 32.6545 43.3493C32.4048 43.7656 32.155 44.0154 31.8219 44.2651C31.4889 44.5149 31.0726 44.6814 30.6563 44.7647Z" fill="#001AFF"/>
<path d="M47.9745 35.1897C49.0569 35.1897 49.9728 35.5228 50.5556 36.1056C51.1384 36.6884 51.5547 37.521 51.7213 38.7699H44.2278C44.2278 38.494 44.2849 38.2181 44.3519 37.8949C44.3657 37.8279 44.38 37.759 44.3943 37.6875C44.4776 37.2712 44.6441 36.8549 44.9771 36.5219C45.3102 36.1888 45.6432 35.8558 46.1428 35.606C46.6423 35.3562 47.2252 35.1897 47.9745 35.1897Z" fill="#001AFF"/>
<path fill-rule="evenodd" clip-rule="evenodd" d="M37.5 0C16.7893 0 0 16.7893 0 37.5C0 58.2107 16.7893 75 37.5 75C58.2107 75 75 58.2107 75 37.5C75 16.7893 58.2107 0 37.5 0ZM32.6545 26.1143C31.7387 25.8645 30.7395 25.7812 29.6572 25.7812H18.75V48.7612H29.9069C30.9061 48.7612 31.9052 48.5947 32.9043 48.3449C33.9035 48.0951 34.8193 47.6788 35.5687 47.1793C36.318 46.6797 36.9841 45.9304 37.4004 45.0977C37.8167 44.2651 38.0665 43.266 38.0665 42.1004C38.0665 40.6849 37.6502 39.436 36.9841 38.4369C36.318 37.4378 35.2356 36.6884 33.8202 36.2721C34.8193 35.7725 35.6519 35.1065 36.1515 34.3571C36.7343 33.6078 36.9841 32.6086 36.9841 31.443C36.9841 30.4439 36.8176 29.528 36.4845 28.7786C36.1515 28.0293 35.6519 27.4465 34.9858 27.0302C34.3198 26.6139 33.5704 26.2808 32.6545 26.1143ZM48.3076 45.8471C46.9754 45.8471 45.9763 45.514 45.3102 44.848C44.6441 44.1819 44.1445 42.933 44.1445 41.6008H56.2173C56.3006 40.2686 56.2173 39.103 56.0508 37.9373C55.7178 36.7717 55.2182 35.6893 54.5521 34.7734C53.886 33.7743 53.0534 33.1082 51.971 32.5254C50.8886 31.9425 49.6397 31.6928 48.2243 31.6928C46.8921 31.6928 45.8097 31.9425 44.7274 32.3588C43.7282 32.7752 42.8124 33.4412 42.063 34.1906C41.3137 35.0232 40.7308 35.9391 40.3145 37.0215C39.8982 38.1038 39.7317 39.2695 39.7317 40.5184C39.7317 41.8506 39.8982 43.0162 40.3145 44.0986C40.6476 45.181 41.2304 46.0969 41.9797 46.8462C42.7291 47.6788 43.5617 48.2617 44.6441 48.678C45.7265 49.0943 46.8921 49.344 48.2243 49.344C50.1393 49.344 51.7213 48.8445 53.0534 48.0119C54.3856 47.096 55.3847 45.6806 56.0508 43.6823H51.971C51.8045 44.1819 51.3882 44.6814 50.7221 45.181C50.056 45.5973 49.2234 45.8471 48.3076 45.8471ZM52.5539 27.3632H43.2287V29.6112H52.5539V27.3632Z" fill="#001AFF"/>
</svg>
