<svg width="75" height="75" viewBox="0 0 75 75" fill="none" xmlns="http://www.w3.org/2000/svg">
<path fill-rule="evenodd" clip-rule="evenodd" d="M0 37.5C0 16.7893 16.7893 0 37.5 0C58.2107 0 75 16.7893 75 37.5C75 58.2107 58.2107 75 37.5 75C16.7893 75 0 58.2107 0 37.5ZM18.75 37.8927C18.75 27.5716 27.1215 19.2 37.4426 19.2C47.7638 19.2 56.1353 27.5716 56.25 37.8927C56.25 46.1495 50.9747 53.145 43.5206 55.6679C42.6032 55.7826 42.2592 55.2092 42.2592 54.7505V49.5899C42.2592 47.8697 41.6858 46.7229 40.9977 46.1495C45.1262 45.6908 49.484 44.2 49.484 36.9752C49.484 34.911 48.6812 33.1908 47.5345 31.9294C47.5435 31.8933 47.5561 31.8481 47.5711 31.7941C47.7466 31.1608 48.256 29.3229 47.305 26.9982C47.305 26.9982 45.6995 26.5395 42.1444 28.9477C40.6537 28.6037 39.0481 28.3743 37.4426 28.3743C35.8372 28.3743 34.2317 28.489 32.7408 28.9477C29.1857 26.5395 27.5803 26.9982 27.5803 26.9982C26.5667 29.4757 27.212 31.4003 27.3442 31.7946L27.351 31.8147C26.0894 33.1908 25.4013 34.7963 25.4013 36.8606C25.4013 44.0853 29.7592 45.6908 33.8877 46.1495C33.4289 46.6083 32.8556 47.411 32.7408 48.6725C31.7087 49.1312 29.0711 49.934 27.351 47.067C27.351 47.067 26.3188 45.2321 24.4839 45.1174C24.4839 45.1174 22.6491 45.1174 24.3693 46.2642C24.3693 46.2642 25.6308 46.8376 26.4334 49.0165C26.4334 49.0165 27.5803 52.6862 32.7408 51.5395V54.7505C32.7408 55.2092 32.3968 55.7826 31.4794 55.6679C24.1399 53.145 18.75 46.1495 18.75 37.8927Z" fill="#001AFF"/>
</svg>
