<svg width="75" height="75" viewBox="0 0 75 75" fill="none" xmlns="http://www.w3.org/2000/svg">
<path d="M37.5 44.0625C33.9844 44.0625 30.9375 41.25 30.9375 37.5C30.9375 33.9844 33.75 30.9375 37.5 30.9375C41.0156 30.9375 44.0625 33.75 44.0625 37.5C44.0625 41.0156 41.0156 44.0625 37.5 44.0625Z" fill="#001AFF"/>
<path fill-rule="evenodd" clip-rule="evenodd" d="M45.4688 21.5625H29.5312C27.6562 21.7969 26.7188 22.0312 26.0156 22.2656C25.0781 22.5 24.375 22.9687 23.6719 23.6719C23.1155 24.2282 22.8526 24.7846 22.5349 25.4571C22.4511 25.6343 22.3634 25.8201 22.2656 26.0156C22.2294 26.1244 22.1875 26.2388 22.1426 26.3614C21.8974 27.0312 21.5625 27.9463 21.5625 29.5312V45.4687C21.7969 47.3437 22.0312 48.2812 22.2656 48.9844C22.5 49.9219 22.9688 50.625 23.6719 51.3281C24.2283 51.8845 24.7846 52.1474 25.4571 52.4651C25.6345 52.5489 25.82 52.6365 26.0156 52.7344C26.1244 52.7706 26.2388 52.8125 26.3614 52.8574C27.0312 53.1026 27.9463 53.4375 29.5312 53.4375H45.4688C47.3437 53.2031 48.2812 52.9687 48.9844 52.7344C49.9219 52.5 50.625 52.0312 51.3281 51.3281C51.8845 50.7717 52.1474 50.2154 52.4651 49.5429C52.5489 49.3655 52.6366 49.18 52.7344 48.9844C52.7706 48.8756 52.8125 48.7612 52.8574 48.6386C53.1026 47.9687 53.4375 47.0537 53.4375 45.4687V29.5312C53.2031 27.6562 52.9688 26.7187 52.7344 26.0156C52.5 25.0781 52.0312 24.375 51.3281 23.6719C50.7717 23.1155 50.2154 22.8526 49.5429 22.5349C49.3658 22.4512 49.1797 22.3633 48.9844 22.2656C48.8756 22.2294 48.7612 22.1875 48.6386 22.1426C47.9688 21.8974 47.0537 21.5625 45.4688 21.5625ZM37.5 27.4219C31.875 27.4219 27.4219 31.875 27.4219 37.5C27.4219 43.125 31.875 47.5781 37.5 47.5781C43.125 47.5781 47.5781 43.125 47.5781 37.5C47.5781 31.875 43.125 27.4219 37.5 27.4219ZM50.1562 27.1875C50.1562 28.4819 49.1069 29.5312 47.8125 29.5312C46.5181 29.5312 45.4688 28.4819 45.4688 27.1875C45.4688 25.8931 46.5181 24.8437 47.8125 24.8437C49.1069 24.8437 50.1562 25.8931 50.1562 27.1875Z" fill="#001AFF"/>
<path fill-rule="evenodd" clip-rule="evenodd" d="M0 37.5C0 16.7893 16.7893 0 37.5 0C58.2107 0 75 16.7893 75 37.5C75 58.2107 58.2107 75 37.5 75C16.7893 75 0 58.2107 0 37.5ZM29.5312 18.0469H45.4688C47.5781 18.2812 48.9844 18.5156 50.1562 18.9844C51.5625 19.6875 52.5 20.1562 53.6719 21.3281C54.8438 22.5 55.5469 23.6719 56.0156 24.8437C56.4844 26.0156 56.9531 27.4219 56.9531 29.5312V45.4687C56.7187 47.5781 56.4844 48.9844 56.0156 50.1562C55.3125 51.5625 54.8438 52.5 53.6719 53.6719C52.5 54.8437 51.3281 55.5469 50.1562 56.0156C48.9844 56.4844 47.5781 56.9531 45.4688 56.9531H29.5312C27.4219 56.7187 26.0156 56.4844 24.8438 56.0156C23.4375 55.3125 22.5 54.8437 21.3281 53.6719C20.1562 52.5 19.4531 51.3281 18.9844 50.1562C18.5156 48.9844 18.0469 47.5781 18.0469 45.4687V29.5312C18.2812 27.4219 18.5156 26.0156 18.9844 24.8437C19.6875 23.4375 20.1562 22.5 21.3281 21.3281C22.5 20.1562 23.6719 19.4531 24.8438 18.9844C26.0156 18.5156 27.4219 18.0469 29.5312 18.0469Z" fill="#001AFF"/>
</svg>
