<svg width="75" height="75" viewBox="0 0 75 75" fill="none" xmlns="http://www.w3.org/2000/svg">
<path fill-rule="evenodd" clip-rule="evenodd" d="M0 37.5C0 16.7893 16.7893 0 37.5 0C58.2107 0 75 16.7893 75 37.5C75 58.2107 58.2107 75 37.5 75C16.7893 75 0 58.2107 0 37.5ZM19.2187 31.1719V56.25H27.1875V31.1719H19.2187ZM18.75 23.2031C18.75 25.7812 20.625 27.6563 23.2031 27.6563C25.7812 27.6563 27.6563 25.7812 27.6563 23.2031C27.6563 20.625 25.7812 18.75 23.2031 18.75C20.8594 18.75 18.75 20.625 18.75 23.2031ZM48.2813 56.25H55.7813V40.7813C55.7813 33.0469 51.0937 30.4688 46.6406 30.4688C42.6562 30.4688 39.8438 33.0469 39.1406 34.6875V31.1719H31.6406V56.25H39.6094V42.8906C39.6094 39.375 41.9531 37.5 44.2969 37.5C46.6406 37.5 48.2813 38.6719 48.2813 42.6562V56.25Z" fill="#001AFF"/>
</svg>
