<svg width="75" height="75" viewBox="0 0 75 75" fill="none" xmlns="http://www.w3.org/2000/svg">
<path d="M36.3786 42.2179V32.7823H31.5083C28.9027 32.7823 26.7904 34.8945 26.7904 37.5001C26.7904 40.0958 28.8865 42.2018 31.4783 42.2179L31.5083 42.2179H36.3786Z" fill="#001AFF"/>
<path d="M26.7904 49.2339C26.7904 46.6383 28.8865 44.5323 31.4783 44.5161L31.5083 44.5162H36.3786V49.1577C36.3786 51.7958 34.2035 53.9518 31.5461 53.9518C28.9309 53.9518 26.7904 51.83 26.7904 49.2339Z" fill="#001AFF"/>
<path d="M43.3946 42.218C40.789 42.218 38.6767 40.1058 38.6767 37.5001C38.6767 34.8945 40.789 32.7823 43.3946 32.7823H43.547C46.1526 32.7823 48.2649 34.8945 48.2649 37.5001C48.2649 40.1058 46.1526 42.218 43.547 42.218H43.3946Z" fill="#001AFF"/>
<path d="M43.547 30.4839H38.6767V21.0482H43.547C46.1526 21.0482 48.2649 23.1604 48.2649 25.766C48.2649 28.3717 46.1526 30.4839 43.547 30.4839Z" fill="#001AFF"/>
<path d="M31.5083 21.0482H36.3786V30.4839H31.5083C28.9027 30.4839 26.7904 28.3717 26.7904 25.766C26.7904 23.1604 28.9027 21.0482 31.5083 21.0482Z" fill="#001AFF"/>
<path fill-rule="evenodd" clip-rule="evenodd" d="M37.5 0C58.2107 0 75 16.7893 75 37.5C75 58.2107 58.2107 75 37.5 75C16.7893 75 0 58.2107 0 37.5C0 16.7893 16.7893 0 37.5 0ZM31.5083 18.75C27.6334 18.75 24.4922 21.8912 24.4922 25.766C24.4922 28.2196 25.7517 30.3791 27.6594 31.6331C25.7517 32.8871 24.4922 35.0465 24.4922 37.5001C24.4922 39.9536 25.7516 42.113 27.6591 43.367C25.7516 44.6211 24.4922 46.7804 24.4922 49.2339C24.4922 53.1184 27.6809 56.25 31.5461 56.25C35.4534 56.25 38.6767 53.0843 38.6767 49.1577V42.6932C39.9227 43.8258 41.5781 44.5162 43.3946 44.5162H43.547C47.4219 44.5162 50.5631 41.375 50.5631 37.5001C50.5631 35.0465 49.3036 32.8871 47.3959 31.6331C49.3036 30.3791 50.5631 28.2196 50.5631 25.766C50.5631 21.8912 47.4219 18.75 43.547 18.75H31.5083Z" fill="#001AFF"/>
</svg>
